<svg width="35" height="25" viewBox="0 0 35 25" fill="none" xmlns="http://www.w3.org/2000/svg">
<path d="M0.867188 17C0.867188 12.9635 2.20833 9.53906 4.89062 6.72656C7.57292 3.88802 11.5443 1.76562 16.8047 0.359375V3.95312C15.1641 4.44792 13.7578 5.08594 12.5859 5.86719C11.4401 6.64844 10.5286 7.54688 9.85156 8.5625C9.20052 9.55208 8.875 10.5026 8.875 11.4141C8.875 12.013 9.07031 12.5208 9.46094 12.9375C9.8776 13.3281 10.6849 13.8359 11.8828 14.4609C13.888 15.5286 14.8906 17.1432 14.8906 19.3047C14.8906 20.8932 14.3047 22.1693 13.1328 23.1328C11.987 24.0703 10.4635 24.5391 8.5625 24.5391C6.34896 24.5391 4.51302 23.8359 3.05469 22.4297C1.59635 20.9974 0.867188 19.1875 0.867188 17ZM18.4453 17C18.4453 12.9635 19.7865 9.53906 22.4688 6.72656C25.151 3.88802 29.1224 1.76562 34.3828 0.359375V3.95312C32.7422 4.44792 31.3359 5.08594 30.1641 5.86719C29.0182 6.64844 28.1068 7.54688 27.4297 8.5625C26.7786 9.55208 26.4531 10.5026 26.4531 11.4141C26.4531 12.013 26.6484 12.5208 27.0391 12.9375C27.4557 13.3281 28.263 13.8359 29.4609 14.4609C31.4661 15.5286 32.4688 17.1432 32.4688 19.3047C32.4688 20.8932 31.8828 22.1693 30.7109 23.1328C29.5651 24.0703 28.0417 24.5391 26.1406 24.5391C23.9271 24.5391 22.0911 23.8359 20.6328 22.4297C19.1745 20.9974 18.4453 19.1875 18.4453 17Z" fill="#311F09"/>
</svg>
